<svg xmlns="http://www.w3.org/2000/svg" xmlns:xlink="http://www.w3.org/1999/xlink" width="16" height="16">
    <symbol viewBox="0 0 32 20" id="behance">
        <path d="M20.448 3.337h8.474V.91h-8.474v2.427zm2.007 5.298c-.54.55-.88 1.294-1.02 2.233h6.59c-.068-1.003-.41-1.76-1.016-2.28-.615-.52-1.37-.777-2.272-.777-.98 0-1.743.275-2.283.825zm5.72-3.26c1.022.45 1.863 1.162 2.525 2.135.604.858.992 1.852 1.168 2.983.104.66.145 1.618.128 2.864H21.342c.064 1.446.568 2.46 1.53 3.042.584.36 1.286.543 2.11.543.868 0 1.577-.22 2.12-.66.3-.24.563-.57.79-.994h3.903c-.103.853-.578 1.723-1.417 2.607-1.31 1.4-3.144 2.103-5.5 2.103-1.948 0-3.666-.59-5.15-1.774-1.493-1.183-2.234-3.11-2.234-5.775 0-2.5.672-4.417 2.013-5.75 1.345-1.332 3.086-2.002 5.23-2.002 1.272 0 2.418.226 3.438.677zM3.942 10.92v5.203h4.8c.86 0 1.53-.116 2.005-.344.867-.428 1.3-1.237 1.3-2.436 0-1.017-.418-1.713-1.26-2.094-.47-.21-1.13-.323-1.976-.33H3.943zm0-7.533v4.305h4.81c.855 0 1.553-.162 2.09-.485.535-.323.804-.894.804-1.71 0-.912-.353-1.512-1.06-1.805-.614-.202-1.393-.305-2.34-.305H3.942zm10.74-1.308c.603.83.906 1.82.906 2.976 0 1.19-.303 2.15-.914 2.873-.343.404-.845.775-1.51 1.11 1.01.363 1.77.937 2.287 1.722.512.783.77 1.737.77 2.858 0 1.157-.293 2.194-.882 3.11a5.42 5.42 0 0 1-1.4 1.536c-.63.477-1.374.802-2.233.98-.86.177-1.79.262-2.794.262H0V0h9.556c2.412.035 4.12.728 5.125 2.08z"/>
    </symbol>

    <symbol viewBox="0 0 32 32" id="Skype">
        <path d="M31.08 19.397c.23-1.042.352-2.122.352-3.23 0-8.31-6.832-15.05-15.263-15.05-.89 0-1.76.077-2.61.222A8.894 8.894 0 0 0 8.852 0C3.962 0 0 3.906 0 8.728c0 1.61.444 3.116 1.215 4.415-.2.975-.308 1.988-.308 3.023 0 8.313 6.833 15.05 15.262 15.05.955 0 1.888-.088 2.795-.253A8.914 8.914 0 0 0 23.15 32c4.888 0 8.85-3.908 8.85-8.727 0-1.393-.33-2.708-.92-3.876zm-7.082 3.962c-.705.985-1.748 1.764-3.102 2.317-1.338.55-2.94.83-4.768.83-2.192 0-4.03-.38-5.466-1.132a7.085 7.085 0 0 1-2.51-2.2c-.65-.92-.978-1.834-.978-2.72 0-.548.215-1.026.636-1.418.418-.39.954-.584 1.594-.584.523 0 .976.154 1.343.46.352.295.653.73.896 1.29.27.61.564 1.127.874 1.53.3.392.732.72 1.282.978.552.257 1.3.39 2.215.39 1.263 0 2.297-.266 3.074-.79.76-.51 1.13-1.125 1.13-1.878 0-.592-.194-1.06-.59-1.426-.416-.382-.964-.68-1.628-.887-.694-.212-1.635-.444-2.8-.685-1.586-.334-2.93-.73-4-1.18-1.095-.458-1.977-1.094-2.623-1.89-.655-.81-.988-1.825-.988-3.018 0-1.135.348-2.16 1.036-3.043.682-.878 1.68-1.564 2.964-2.03 1.266-.46 2.77-.695 4.478-.695 1.362 0 2.56.155 3.56.463 1.008.308 1.854.723 2.52 1.237.672.52 1.173 1.07 1.485 1.645.316.58.478 1.157.478 1.716 0 .54-.21 1.028-.627 1.453-.417.43-.946.647-1.567.647-.565 0-1.01-.137-1.314-.404-.286-.25-.583-.64-.913-1.196-.38-.713-.84-1.275-1.37-1.672-.513-.385-1.37-.578-2.55-.578-1.09 0-1.982.215-2.642.643-.635.41-.946.883-.946 1.443 0 .342.1.63.307.874.216.263.522.49.91.683.4.198.814.358 1.228.47.424.116 1.135.288 2.11.51 1.238.26 2.372.555 3.375.872 1.018.32 1.895.713 2.613 1.174.73.47 1.308 1.07 1.72 1.79.412.725.62 1.615.62 2.652 0 1.24-.36 2.368-1.068 3.357z"/>
    </symbol>

    <symbol viewBox="0 0 32 32" id="dribble">
        <path d="M32 15.978a16.005 16.005 0 0 1-1.26 6.22 16.11 16.11 0 0 1-3.428 5.078c-.723.72-1.52 1.376-2.366 1.95-.855.575-1.77 1.07-2.718 1.472a16.07 16.07 0 0 1-12.457 0 16.174 16.174 0 0 1-2.718-1.473 16.125 16.125 0 0 1-4.32-4.315 15.964 15.964 0 0 1-2.41-5.716 16.172 16.172 0 0 1 .002-6.433 15.886 15.886 0 0 1 2.41-5.717A16.13 16.13 0 0 1 4.685 4.68 16.07 16.07 0 0 1 9.77 1.255c.966-.41 1.977-.722 3.006-.93a16.123 16.123 0 0 1 9.45.93c.95.4 1.864.896 2.72 1.475a16.356 16.356 0 0 1 2.366 1.95c.723.723 1.38 1.516 1.952 2.363a15.832 15.832 0 0 1 2.41 5.718A15.99 15.99 0 0 1 32 15.978zM10.17 3.636a13.665 13.665 0 0 0-7.542 9.53c.36.002 6.054.073 12.615-1.667a82.155 82.155 0 0 0-5.074-7.864zm6.205 9.964c-7.035 2.103-13.787 1.952-14.03 1.943-.003.146-.01.288-.01.435 0 3.505 1.325 6.7 3.5 9.117-.003-.007 3.736-6.632 11.11-9.013.178-.06.36-.112.54-.163a46.118 46.118 0 0 0-1.11-2.32zm8.648-7.863A13.61 13.61 0 0 0 16 2.334c-1.11 0-2.188.135-3.22.383.204.274 2.77 3.674 5.108 7.96 5.155-1.93 7.102-4.89 7.135-4.94zM18.415 18.18c-.03.01-.06.018-.09.03C10.26 21.015 7.63 26.67 7.6 26.732c2.32 1.802 5.23 2.888 8.4 2.888a13.61 13.61 0 0 0 5.334-1.08c-.202-1.192-.996-5.37-2.92-10.36zm5.22 9.113a13.647 13.647 0 0 0 5.855-9.153c-.28-.09-4.104-1.3-8.515-.593 1.793 4.92 2.52 8.924 2.66 9.746zM18.94 12.71a43.027 43.027 0 0 1 1.202 2.684c4.694-.59 9.32.403 9.517.443a13.563 13.563 0 0 0-3.11-8.527c-.024.037-2.216 3.2-7.61 5.4z"/>
    </symbol>

    <symbol viewBox="0 0 16 33" id="fb">
        <path d="M10.127 32.64V16.317h4.505l.597-5.625h-5.103l.008-2.815c0-1.467.14-2.253 2.246-2.253H15.2V0H10.69C5.28 0 3.375 2.728 3.375 7.317v3.377H0v5.624h3.374v16.32h6.753z"/>
    </symbol>

    <symbol viewBox="0 0 20 20" id="fb-alt">
            <path d="M20 10.0611C20 4.50451 15.5229 0 10 0C4.47715 0 0 4.50451 0 10.0611C0 15.0829 3.65686 19.2452 8.4375 20V12.9694H5.89844V10.0611H8.4375V7.84452C8.4375 5.32296 9.93043 3.93012 12.2146 3.93012C13.3087 3.93012 14.4531 4.12663 14.4531 4.12663V6.60261H13.1921C11.9499 6.60261 11.5625 7.37816 11.5625 8.17381V10.0611H14.3359L13.8926 12.9694H11.5625V20C16.3431 19.2452 20 15.0829 20 10.0611Z"/>
    </symbol>

    <symbol viewBox="0 0 30 19" id="gplus">
        <path d="M9.545 8.143V11.4h5.414c-.22 1.398-1.637 4.1-5.415 4.1-3.26 0-5.918-2.69-5.918-6s2.66-6 5.918-6c1.855 0 3.096.79 3.805 1.467l2.59-2.483C14.278.936 12.124 0 9.546 0 4.268 0 0 4.248 0 9.5S4.268 19 9.545 19c5.51 0 9.164-3.854 9.164-9.283 0-.624-.07-1.1-.15-1.574H9.544zM30 8.143h-2.727V5.43h-2.728v2.713h-2.727v2.714h2.727v2.714h2.728v-2.713H30"/>
    </symbol>

    <symbol viewBox="0 0 32 31" id="in">
        <path d="M7.2 9.847H.403v20.427h6.8V9.847zm.448-6.32C7.604 1.528 6.172 0 3.846 0 1.52 0 0 1.526 0 3.528c0 1.962 1.476 3.53 3.758 3.53H3.8c2.372 0 3.848-1.568 3.848-3.53zm24.07 15.035c0-6.274-3.353-9.194-7.827-9.194-3.608 0-5.224 1.982-6.127 3.373V9.85h-6.8c.09 1.917 0 20.427 0 20.427h6.8V18.867c0-.61.044-1.22.224-1.657.492-1.22 1.61-2.482 3.49-2.482 2.46 0 3.444 1.873 3.444 4.618v10.928h6.8V18.562z"/>
    </symbol>

    <symbol viewBox="0 0 32 32" id="instagram">
        <path d="M16.002 0c-4.346 0-4.89.02-6.598.097C7.7.175 6.538.444 5.52.84a7.835 7.835 0 0 0-2.834 1.845A7.854 7.854 0 0 0 .84 5.52C.443 6.536.173 7.7.096 9.4.02 11.11 0 11.655 0 16c0 4.346.02 4.89.097 6.596.078 1.703.348 2.866.743 3.883a7.84 7.84 0 0 0 1.845 2.834A7.835 7.835 0 0 0 5.52 31.16c1.017.396 2.18.666 3.883.744C11.11 31.98 11.653 32 16 32c4.345 0 4.89-.02 6.596-.096 1.703-.078 2.867-.348 3.885-.744a7.828 7.828 0 0 0 2.833-1.846 7.854 7.854 0 0 0 1.847-2.834c.393-1.018.663-2.18.743-3.884C31.98 20.89 32 20.346 32 16c0-4.345-.02-4.89-.097-6.597-.08-1.704-.35-2.866-.743-3.884a7.853 7.853 0 0 0-1.847-2.835A7.82 7.82 0 0 0 26.48.84C25.46.444 24.297.175 22.593.097 20.887.02 20.343 0 15.997 0h.005zm-1.436 2.883H16c4.274 0 4.78.016 6.467.092 1.56.072 2.407.332 2.97.55.747.29 1.28.638 1.84 1.198.56.56.906 1.093 1.197 1.84.22.563.48 1.41.55 2.97.077 1.687.094 2.193.094 6.464 0 4.27-.017 4.776-.093 6.463-.072 1.56-.332 2.407-.55 2.97a4.947 4.947 0 0 1-1.2 1.838c-.56.56-1.09.907-1.837 1.197-.564.22-1.41.48-2.97.55-1.688.078-2.194.094-6.466.094-4.273 0-4.78-.017-6.466-.094-1.56-.072-2.407-.333-2.97-.552a4.956 4.956 0 0 1-1.84-1.196 4.96 4.96 0 0 1-1.198-1.84c-.22-.563-.48-1.41-.55-2.97-.078-1.686-.093-2.193-.093-6.466 0-4.272.015-4.776.092-6.463.07-1.56.332-2.408.55-2.972.29-.746.638-1.28 1.198-1.84a4.966 4.966 0 0 1 1.84-1.197c.564-.22 1.41-.48 2.97-.55 1.477-.067 2.05-.087 5.03-.09v.003zm9.976 2.657a1.92 1.92 0 1 0 0 3.84 1.92 1.92 0 0 0 0-3.84zm-8.54 2.243a8.217 8.217 0 1 0 0 16.435 8.217 8.217 0 0 0 0-16.435zm0 2.884a5.333 5.333 0 1 1 0 10.667 5.333 5.333 0 0 1 0-10.667z" fill="currentColor" />
    </symbol>

    <symbol viewBox="0 0 32 32" id="instagram-gr">
        <path d="M16.002 0c-4.346 0-4.89.02-6.598.097C7.7.175 6.538.444 5.52.84a7.835 7.835 0 0 0-2.834 1.845A7.854 7.854 0 0 0 .84 5.52C.443 6.536.173 7.7.096 9.4.02 11.11 0 11.655 0 16c0 4.346.02 4.89.097 6.596.078 1.703.348 2.866.743 3.883a7.84 7.84 0 0 0 1.845 2.834A7.835 7.835 0 0 0 5.52 31.16c1.017.396 2.18.666 3.883.744C11.11 31.98 11.653 32 16 32c4.345 0 4.89-.02 6.596-.096 1.703-.078 2.867-.348 3.885-.744a7.828 7.828 0 0 0 2.833-1.846 7.854 7.854 0 0 0 1.847-2.834c.393-1.018.663-2.18.743-3.884C31.98 20.89 32 20.346 32 16c0-4.345-.02-4.89-.097-6.597-.08-1.704-.35-2.866-.743-3.884a7.853 7.853 0 0 0-1.847-2.835A7.82 7.82 0 0 0 26.48.84C25.46.444 24.297.175 22.593.097 20.887.02 20.343 0 15.997 0h.005zm-1.436 2.883H16c4.274 0 4.78.016 6.467.092 1.56.072 2.407.332 2.97.55.747.29 1.28.638 1.84 1.198.56.56.906 1.093 1.197 1.84.22.563.48 1.41.55 2.97.077 1.687.094 2.193.094 6.464 0 4.27-.017 4.776-.093 6.463-.072 1.56-.332 2.407-.55 2.97a4.947 4.947 0 0 1-1.2 1.838c-.56.56-1.09.907-1.837 1.197-.564.22-1.41.48-2.97.55-1.688.078-2.194.094-6.466.094-4.273 0-4.78-.017-6.466-.094-1.56-.072-2.407-.333-2.97-.552a4.956 4.956 0 0 1-1.84-1.196 4.96 4.96 0 0 1-1.198-1.84c-.22-.563-.48-1.41-.55-2.97-.078-1.686-.093-2.193-.093-6.466 0-4.272.015-4.776.092-6.463.07-1.56.332-2.408.55-2.972.29-.746.638-1.28 1.198-1.84a4.966 4.966 0 0 1 1.84-1.197c.564-.22 1.41-.48 2.97-.55 1.477-.067 2.05-.087 5.03-.09v.003zm9.976 2.657a1.92 1.92 0 1 0 0 3.84 1.92 1.92 0 0 0 0-3.84zm-8.54 2.243a8.217 8.217 0 1 0 0 16.435 8.217 8.217 0 0 0 0-16.435zm0 2.884a5.333 5.333 0 1 1 0 10.667 5.333 5.333 0 0 1 0-10.667z" fill="url(#instagradient) currentColor" />
    </symbol>

    <symbol viewBox="0 0 18 30" id="ok">
        <path d="M8.98 4.537c1.83 0 3.32 1.437 3.32 3.205 0 1.766-1.49 3.204-3.32 3.204-1.83 0-3.32-1.438-3.32-3.204 0-1.768 1.49-3.205 3.32-3.205zm0 10.945c4.423 0 8.02-3.472 8.02-7.74C17 3.472 13.403 0 8.98 0S.96 3.473.96 7.742c0 4.268 3.597 7.74 8.02 7.74zm3.265 6.318a15.328 15.328 0 0 0 4.657-1.86c1.097-.67 1.428-2.07.737-3.13-.692-1.06-2.142-1.38-3.24-.712-3.287 1.994-7.516 1.994-10.8 0-1.1-.668-2.55-.348-3.238.713-.692 1.06-.362 2.46.735 3.13a15.352 15.352 0 0 0 4.657 1.86L1.27 26.13a2.213 2.213 0 0 0 .002 3.206c.46.442 1.06.664 1.66.664a2.39 2.39 0 0 0 1.663-.664L9 25.083l4.407 4.253a2.408 2.408 0 0 0 3.32 0 2.21 2.21 0 0 0 0-3.207l-4.482-4.33z"/>
    </symbol>

    <symbol viewBox="0 0 56 55" id="p">
        <path d="M.772 27.367c0 11.506 7.154 21.337 17.25 25.296-.238-2.148-.45-5.446.095-7.796.49-2.12 3.183-13.5 3.183-13.5s-.812-1.628-.812-4.032c0-3.78 2.185-6.598 4.912-6.598 2.313 0 3.432 1.74 3.432 3.827 0 2.33-1.482 5.814-2.25 9.044-.637 2.707 1.358 4.91 4.02 4.91 4.826 0 8.534-5.093 8.534-12.442 0-6.504-4.667-11.05-11.337-11.05-7.722 0-12.255 5.798-12.255 11.79 0 2.333.895 4.837 2.018 6.198.22.27.253.504.19.78-.207.857-.665 2.704-.755 3.08-.12.497-.395.603-.91.365-3.39-1.58-5.506-6.544-5.506-10.525 0-8.57 6.22-16.44 17.933-16.44 9.415 0 16.733 6.715 16.733 15.69 0 9.36-5.9 16.896-14.083 16.896-2.753 0-5.34-1.43-6.224-3.12 0 0-1.36 5.185-1.69 6.456-.612 2.36-2.268 5.317-3.37 7.12a26.992 26.992 0 0 0 8.035 1.215c14.99 0 27.143-12.16 27.143-27.163C55.058 12.36 42.906.202 27.915.202 12.925.203.772 12.363.772 27.367z"/>
    </symbol>

    <symbol viewBox="0 0 29 24" id="twitter">
        <path d="M14.102 6.384l.062 1.038-1.05-.127C9.297 6.808 5.96 5.155 3.128 2.38L1.742 1.003 1.385 2.02c-.755 2.267-.273 4.66 1.3 6.27.84.89.652 1.018-.796.488-.505-.17-.946-.296-.988-.233-.147.15.357 2.076.756 2.84.545 1.058 1.658 2.096 2.875 2.71l1.028.488-1.216.02c-1.175 0-1.217.022-1.09.467.418 1.377 2.076 2.84 3.923 3.475l1.3.444-1.132.677a11.815 11.815 0 0 1-5.624 1.568c-.944.02-1.72.106-1.72.17 0 .21 2.56 1.398 4.05 1.864 4.47 1.376 9.78.783 13.766-1.57 2.833-1.672 5.666-5 6.988-8.22.713-1.715 1.426-4.85 1.426-6.354 0-.975.063-1.102 1.24-2.267.69-.68 1.342-1.42 1.467-1.632.21-.403.19-.403-.88-.043-1.785.636-2.036.55-1.155-.402.65-.678 1.427-1.907 1.427-2.267 0-.063-.316.042-.673.233-.377.21-1.217.53-1.846.72l-1.132.36-1.03-.7c-.565-.38-1.363-.805-1.782-.932-1.07-.296-2.707-.254-3.673.085-2.623.953-4.28 3.41-4.09 6.1z"/>
    </symbol>

    <symbol viewBox="0 0 19 20" id="viber">
        <path d="M16.8266 1.95076C16.3296 1.49217 14.3211 0.0341638 9.84745 0.0143555C9.84745 0.0143555 4.57185 -0.303777 2.00007 2.05521C0.568474 3.48711 0.0648634 5.58228 0.0117412 8.17987C-0.041381 10.7775 -0.11011 15.6455 4.58235 16.9654H4.58685L4.58385 18.9796C4.58385 18.9796 4.55384 19.795 5.09076 19.9613C5.74024 20.163 6.12139 19.5432 6.74145 18.8751C7.0818 18.5084 7.55179 17.9697 7.90594 17.5579C11.1152 17.828 13.5834 17.2106 13.8637 17.1194C14.5117 16.9093 18.1783 16.4393 18.7747 11.5719C19.3902 6.55469 18.477 3.38116 16.8266 1.95076ZM17.3704 11.212C16.8671 15.2763 13.8931 15.5317 13.3448 15.7076C13.1116 15.7826 10.9438 16.322 8.21777 16.144C8.21777 16.144 6.18652 18.5945 5.55206 19.2317C5.45302 19.3313 5.33657 19.3715 5.25883 19.3517C5.14959 19.325 5.11958 19.1957 5.12078 19.0066C5.12258 18.7365 5.13818 15.6596 5.13818 15.6596C5.13818 15.6596 5.13578 15.6596 5.13818 15.6596C1.16872 14.5575 1.40012 10.4143 1.44514 8.24469C1.49016 6.07509 1.89773 4.29775 3.10844 3.10235C5.28374 1.13202 9.76492 1.42645 9.76492 1.42645C13.5492 1.44295 15.3626 2.58253 15.783 2.96429C17.1792 4.15969 17.8905 7.02018 17.3704 11.2108V11.212Z"/>
        <path fill-rule="evenodd" clip-rule="evenodd" d="M9.92442 6.48989C9.9317 6.35035 10.0507 6.24313 10.1903 6.25041C10.7123 6.27765 11.1467 6.43568 11.4561 6.75553C11.7642 7.07417 11.9153 7.5193 11.9418 8.05389C11.9487 8.19345 11.8412 8.3122 11.7017 8.31912C11.5621 8.32604 11.4433 8.21852 11.4364 8.07896C11.4137 7.62134 11.2882 7.30981 11.0923 7.10732C10.8977 6.90606 10.6006 6.77852 10.1639 6.75574C10.0244 6.74846 9.91714 6.62943 9.92442 6.48989Z"/>
        <path fill-rule="evenodd" clip-rule="evenodd" d="M9.54073 5.12682C9.55092 4.98746 9.67216 4.88276 9.81152 4.89296C10.874 4.97072 11.7292 5.33375 12.3521 6.01372L12.3522 6.01381C12.9684 6.6871 13.2612 7.52466 13.2399 8.50707C13.2369 8.64677 13.1212 8.75756 12.9815 8.75454C12.8418 8.75151 12.731 8.63582 12.734 8.49612C12.7528 7.62975 12.498 6.92267 11.9789 6.35543C11.4614 5.79055 10.7379 5.46812 9.77459 5.39762C9.63523 5.38742 9.53053 5.26618 9.54073 5.12682Z"/>
        <path fill-rule="evenodd" clip-rule="evenodd" d="M9.09424 3.83114C9.09522 3.69141 9.20928 3.57893 9.34901 3.5799C10.8173 3.59013 12.0584 4.07893 13.0548 5.05032C14.0596 6.02983 14.5565 7.36334 14.5691 9.01954C14.5702 9.15927 14.4578 9.2734 14.318 9.27447C14.1783 9.27553 14.0642 9.16312 14.0631 9.02339C14.0513 7.47145 13.5896 6.27831 12.7016 5.41265C11.8053 4.53887 10.6924 4.09528 9.34548 4.0859C9.20575 4.08493 9.09327 3.97087 9.09424 3.83114Z"/>
        <path d="M10.2271 11.4551C10.2271 11.4551 10.5827 11.4852 10.7742 11.2493L11.1475 10.7796C11.3276 10.5467 11.7622 10.3981 12.1878 10.6352C12.5067 10.8171 12.8163 11.0148 13.1155 11.2276C13.3979 11.4353 13.9762 11.9179 13.978 11.9179C14.2535 12.1505 14.3172 12.4921 14.1296 12.8522C14.1296 12.8543 14.1281 12.8579 14.1281 12.8597C13.9215 13.2179 13.6592 13.5408 13.3511 13.8165C13.3475 13.8183 13.3475 13.8201 13.3442 13.8219C13.0764 14.0456 12.8134 14.1728 12.5551 14.2034C12.5171 14.21 12.4784 14.2125 12.4399 14.2106C12.326 14.2117 12.2127 14.1943 12.1043 14.159L12.0959 14.1467C11.698 14.0344 11.0335 13.7535 9.92693 13.143C9.28659 12.7939 8.67695 12.3912 8.10457 11.9392C7.81768 11.7128 7.54401 11.4701 7.28493 11.2123L7.25732 11.1847L7.22971 11.1571L7.2021 11.1295C7.19279 11.1205 7.18379 11.1112 7.17448 11.1019C6.9167 10.8428 6.674 10.5691 6.44758 10.2822C5.99565 9.70993 5.59295 9.1004 5.24378 8.46019C4.63332 7.35333 4.3524 6.68945 4.24016 6.29088L4.22785 6.28248C4.19267 6.17415 4.17533 6.06083 4.17653 5.94694C4.17443 5.90838 4.17675 5.86972 4.18343 5.83169C4.21565 5.57378 4.343 5.31057 4.56549 5.04206C4.56729 5.03876 4.5691 5.03876 4.5709 5.03516C4.8465 4.72702 5.16949 4.46482 5.5277 4.25843C5.5295 4.25843 5.5331 4.25663 5.5352 4.25663C5.89535 4.06905 6.23689 4.13268 6.46919 4.40669C6.47099 4.40849 6.95269 4.98684 7.15948 5.26925C7.37234 5.5687 7.57007 5.87862 7.75193 6.19784C7.98902 6.62312 7.84046 7.0586 7.60756 7.23808L7.13787 7.61143C6.90077 7.80291 6.93198 8.15856 6.93198 8.15856C6.93198 8.15856 7.62767 10.7916 10.2271 11.4551Z"/>
    </symbol>

    <symbol viewBox="0 0 32 18" id="vk">
        <path d="M17.57 17.845s.577-.063.873-.375c.27-.286.26-.825.26-.825s-.035-2.518 1.156-2.89c1.173-.365 2.68 2.435 4.28 3.512 1.208.815 2.125.636 2.125.636l4.274-.058s2.234-.135 1.175-1.86c-.088-.142-.618-1.277-3.177-3.61-2.68-2.44-2.32-2.046.906-6.27 1.966-2.57 2.75-4.14 2.506-4.812C31.716.65 30.27.82 30.27.82l-4.81.03s-.358-.047-.622.108c-.258.152-.426.507-.426.507s-.76 1.99-1.776 3.682c-2.143 3.57-3 3.76-3.35 3.54-.815-.52-.612-2.08-.612-3.186 0-3.46.536-4.903-1.04-5.276-.523-.125-.908-.206-2.246-.22-1.717-.017-3.17.006-3.993.4-.548.264-.97.85-.712.884.318.042 1.037.19 1.42.7.492.66.475 2.138.475 2.138s.283 4.074-.662 4.58c-.648.347-1.537-.36-3.448-3.602C7.49 3.444 6.75 1.61 6.75 1.61s-.14-.342-.396-.526c-.31-.223-.74-.292-.74-.292l-4.57.03s-.688.018-.94.31c-.224.26-.017.8-.017.8s3.58 8.22 7.633 12.364c3.717 3.798 7.937 3.55 7.937 3.55h1.912z"/>
    </symbol>

    <symbol viewBox="0 0 24 24" id="vk-alt">
        <path d="M15.684 0H8.316C1.592 0 0 1.592 0 8.316v7.368C0 22.408 1.592 24 8.316 24h7.368C22.408 24 24 22.408 24 15.684V8.316C24 1.592 22.408 0 15.684 0zm3.438 7.622c.525 0 .644.27.525.643-.185.854-1.72 3.12-2.197 3.82-.09.134-.143.21-.14.21-.186.306-.254.442 0 .78.092.126.287.317.51.535.228.225.486.478.692.72.746.846 1.322 1.557 1.474 2.048.135.49-.102.745-.61.745h-1.744c-.463 0-.7-.265-1.21-.83-.217-.244-.484-.54-.84-.897-1.033-1-1.49-1.135-1.744-1.135-.356 0-.458.086-.458.594v1.575c0 .422-.135.676-1.253.676-1.846 0-3.895-1.117-5.335-3.2-2.168-3.05-2.76-5.353-2.76-5.81 0-.254.084-.49.592-.49h1.76c.442 0 .61.185.78.676.864 2.49 2.304 4.675 2.897 4.675.22 0 .323-.102.323-.66V9.72c-.042-.732-.297-1.05-.486-1.287-.117-.147-.21-.262-.21-.424 0-.202.17-.405.442-.405h2.742c.373 0 .508.203.508.643v3.472c0 .373.153.508.27.508.222 0 .408-.135.814-.54 1.254-1.407 2.15-3.575 2.15-3.575.12-.254.323-.49.764-.49h1.744z"/>
    </symbol>

    <symbol viewBox="0 0 32 23" id="yt">
        <path d="M12.696 15.74V6.554l8.645 4.61-8.644 4.578zM31.68 4.96s-.313-2.252-1.272-3.244C29.19.413 27.828.406 27.202.33 22.724 0 16.007 0 16.007 0h-.014S9.276 0 4.798.33c-.626.077-1.99.083-3.207 1.386C.633 2.708.32 4.96.32 4.96S0 7.61 0 10.255v2.48c0 2.648.32 5.293.32 5.293s.312 2.254 1.27 3.246c1.22 1.303 2.818 1.262 3.53 1.398C7.68 22.923 16 23 16 23s6.724-.01 11.202-.34c.625-.078 1.99-.084 3.206-1.387.96-.992 1.272-3.246 1.272-3.246s.32-2.645.32-5.292v-2.48c0-2.647-.32-5.294-.32-5.294z"/>
    </symbol>

    <symbol viewBox="0 0 60 59" id="github">
        <path d="M30.054.22C13.518.22.11 13.63.11 30.17c0 13.23 8.58 24.457 20.477 28.417 1.497.278 2.046-.65 2.046-1.44 0-.714-.027-3.074-.04-5.576-8.33 1.813-10.09-3.533-10.09-3.533-1.36-3.46-3.323-4.382-3.323-4.382-2.717-1.858.204-1.82.204-1.82 3.007.21 4.59 3.086 4.59 3.086 2.67 4.58 7.006 3.256 8.714 2.49.27-1.935 1.045-3.257 1.902-4.004-6.65-.757-13.643-3.325-13.643-14.8 0-3.27 1.17-5.942 3.085-8.04-.31-.754-1.336-3.8.29-7.925 0 0 2.515-.804 8.237 3.07 2.388-.663 4.95-.996 7.494-1.007 2.545.01 5.108.344 7.502 1.008 5.715-3.874 8.226-3.07 8.226-3.07 1.63 4.126.604 7.172.294 7.926 1.92 2.098 3.08 4.77 3.08 8.04 0 11.502-7.004 14.035-13.672 14.776 1.074.93 2.03 2.752 2.03 5.546 0 4.007-.033 7.232-.033 8.22 0 .796.54 1.73 2.058 1.435 11.89-3.964 20.46-15.186 20.46-28.414C59.998 13.63 46.59.22 30.054.22"/>
    </symbol>

    <symbol viewBox="0 0 25 16" id="gplus">
        <path d="M25 7h-3V4h-2v3h-3v2h3v3h2V9h3V7zM8 6.5v3.12h4.36c-.335 1.88-1.965 3.25-4.36 3.25-2.64 0-4.785-2.235-4.785-4.875S5.36 3.125 8 3.125c1.19 0 2.255.41 3.095 1.21v.005l2.255-2.255C11.965.795 10.16 0 8 0 3.58 0 0 3.58 0 8s3.58 8 8 8c4.62 0 7.68-3.25 7.68-7.82 0-.585-.055-1.145-.155-1.68H8z"/>
    </symbol>

    <symbol viewBox="0 0 16 16" id="lj">
        <path d="M8.376 1.02a7.44 7.44 0 0 0-2.87.572L3.954.038A.13.13 0 0 0 3.79.02 11.582 11.582 0 0 0 .05 3.76a.13.13 0 0 0 .018.163l1.49 1.49A7.422 7.422 0 0 0 .886 8.51c0 4.13 3.36 7.49 7.49 7.49 4.13 0 7.49-3.36 7.49-7.49 0-4.13-3.36-7.49-7.49-7.49zm2.967 6.78l.522 2.206.5 2.33-2.326-.5-2.207-.52-5.96-5.96a7.23 7.23 0 0 1 3.574-3.453L11.343 7.8zm.238 2.03L11.187 8.1a6.193 6.193 0 0 0-3.057 3.058l1.73.395a3.892 3.892 0 0 1 1.72-1.72z" fill-rule="nonzero"/>
    </symbol>

    <symbol viewBox="0 0 13 16" id="periscope">
        <path d="M12.497 6.248C12.497 10.894 7.5 16 6.247 16 4.998 16 0 10.894 0 6.248a6.248 6.248 0 0 1 12.497 0zm-6.25-3.77c-.3 0-.59.036-.87.102a1.53 1.53 0 1 1-2.2 1.467 3.79 3.79 0 1 0 3.07-1.57z"/>
    </symbol>

    <symbol viewBox="0 0 32 32" id="skype">
        <path d="M31.08 19.397c.23-1.042.352-2.122.352-3.23 0-8.31-6.832-15.05-15.263-15.05-.89 0-1.76.077-2.61.222A8.894 8.894 0 0 0 8.852 0C3.962 0 0 3.906 0 8.728c0 1.61.444 3.116 1.215 4.415-.2.975-.308 1.988-.308 3.023 0 8.313 6.833 15.05 15.262 15.05.955 0 1.888-.088 2.795-.253A8.914 8.914 0 0 0 23.15 32c4.888 0 8.85-3.908 8.85-8.727 0-1.393-.33-2.708-.92-3.876zm-7.082 3.962c-.705.985-1.748 1.764-3.102 2.317-1.338.55-2.94.83-4.768.83-2.192 0-4.03-.38-5.466-1.132a7.085 7.085 0 0 1-2.51-2.2c-.65-.92-.978-1.834-.978-2.72 0-.548.215-1.026.636-1.418.418-.39.954-.584 1.594-.584.523 0 .976.154 1.343.46.352.295.653.73.896 1.29.27.61.564 1.127.874 1.53.3.392.732.72 1.282.978.552.257 1.3.39 2.215.39 1.263 0 2.297-.266 3.074-.79.76-.51 1.13-1.125 1.13-1.878 0-.592-.194-1.06-.59-1.426-.416-.382-.964-.68-1.628-.887-.694-.212-1.635-.444-2.8-.685-1.586-.334-2.93-.73-4-1.18-1.095-.458-1.977-1.094-2.623-1.89-.655-.81-.988-1.825-.988-3.018 0-1.135.348-2.16 1.036-3.043.682-.878 1.68-1.564 2.964-2.03 1.266-.46 2.77-.695 4.478-.695 1.362 0 2.56.155 3.56.463 1.008.308 1.854.723 2.52 1.237.672.52 1.173 1.07 1.485 1.645.316.58.478 1.157.478 1.716 0 .54-.21 1.028-.627 1.453-.417.43-.946.647-1.567.647-.565 0-1.01-.137-1.314-.404-.286-.25-.583-.64-.913-1.196-.38-.713-.84-1.275-1.37-1.672-.513-.385-1.37-.578-2.55-.578-1.09 0-1.982.215-2.642.643-.635.41-.946.883-.946 1.443 0 .342.1.63.307.874.216.263.522.49.91.683.4.198.814.358 1.228.47.424.116 1.135.288 2.11.51 1.238.26 2.372.555 3.375.872 1.018.32 1.895.713 2.613 1.174.73.47 1.308 1.07 1.72 1.79.412.725.62 1.615.62 2.652 0 1.24-.36 2.368-1.068 3.357z"/>
    </symbol>

    <symbol viewBox="0 0 20 20" id="snapchat">
        <path d="M19.8981 14.385C19.7593 14.0074 19.495 13.8054 19.194 13.638C19.1374 13.6048 19.0853 13.5783 19.0409 13.5579C18.9511 13.5115 18.8593 13.4666 18.768 13.4191C17.8297 12.9217 17.097 12.2941 16.5888 11.5502C16.4445 11.3408 16.3194 11.1188 16.2149 10.8869C16.1715 10.763 16.1735 10.6925 16.2047 10.6283C16.2355 10.5787 16.2764 10.5362 16.3246 10.5033C16.4858 10.3966 16.6521 10.2885 16.7649 10.2155C16.9659 10.0854 17.1251 9.98233 17.2276 9.90937C17.6128 9.63997 17.8822 9.35374 18.0506 9.03384C18.1681 8.81282 18.2366 8.5691 18.2515 8.31924C18.2663 8.06938 18.2272 7.81925 18.1368 7.58585C17.8817 6.91441 17.2475 6.49757 16.4792 6.49757C16.3171 6.49742 16.1554 6.51452 15.997 6.54859C15.9547 6.55777 15.9123 6.56747 15.871 6.57818C15.8781 6.11899 15.8679 5.63429 15.8271 5.15724C15.6822 3.48017 15.0949 2.60107 14.4827 1.90004C14.0906 1.46074 13.6288 1.08908 13.1158 0.800015C12.1867 0.269393 11.1331 0 9.98464 0C8.83615 0 7.78766 0.269393 6.85754 0.800015C6.34331 1.08917 5.88056 1.46157 5.48813 1.90208C4.87587 2.60311 4.28862 3.48374 4.14372 5.15928C4.1029 5.63633 4.09269 6.12358 4.09933 6.58022C4.058 6.56951 4.01616 6.55982 3.97382 6.55063C3.81536 6.51656 3.65374 6.49946 3.49166 6.49961C2.72277 6.49961 2.08756 6.91645 1.83347 7.5879C1.74265 7.82139 1.70316 8.07171 1.71769 8.32182C1.73221 8.57194 1.80041 8.816 1.91765 9.03741C2.08654 9.35732 2.35593 9.64355 2.74114 9.91294C2.84318 9.98437 3.00288 10.0874 3.2039 10.2191C3.31258 10.2895 3.47126 10.3925 3.62687 10.4956C3.68132 10.5308 3.72759 10.5773 3.76259 10.6318C3.79524 10.6987 3.79626 10.7706 3.74779 10.9033C3.6447 11.1303 3.52159 11.3476 3.37993 11.5528C2.88298 12.2798 2.17174 12.8962 1.26356 13.3895C0.782429 13.6446 0.28242 13.8151 0.0711918 14.389C-0.0879949 14.8222 0.0160886 15.3151 0.420688 15.7304C0.569179 15.8854 0.741407 16.0158 0.930902 16.1166C1.32519 16.3333 1.74445 16.501 2.17939 16.6161C2.26915 16.6393 2.35436 16.6774 2.43144 16.7289C2.57889 16.858 2.55797 17.0524 2.7544 17.3371C2.85301 17.4842 2.9783 17.6116 3.1238 17.7126C3.53605 17.9973 3.99933 18.0151 4.49015 18.034C4.93353 18.0508 5.43609 18.0702 6.01008 18.2595C6.24784 18.3381 6.49478 18.4901 6.78101 18.6677C7.46827 19.0901 8.4091 19.6682 9.98362 19.6682C11.5581 19.6682 12.5056 19.0871 13.198 18.6631C13.4822 18.4886 13.7276 18.3381 13.9587 18.2616C14.5327 18.0718 15.0352 18.0529 15.4786 18.036C15.9694 18.0172 16.4327 17.9993 16.845 17.7146C17.0173 17.5945 17.1609 17.4376 17.2654 17.2554C17.4067 17.0151 17.4031 16.8472 17.5358 16.7299C17.6081 16.6809 17.6881 16.6443 17.7725 16.6217C18.2134 16.5063 18.6384 16.337 19.0379 16.1176C19.2392 16.0096 19.4204 15.8678 19.5736 15.6982L19.5787 15.6921C19.9583 15.286 20.0537 14.8074 19.8981 14.385ZM18.4986 15.137C17.645 15.6085 17.0776 15.5579 16.6363 15.8421C16.2613 16.0835 16.4832 16.6039 16.2108 16.7916C15.8761 17.0228 14.8868 16.7753 13.6087 17.1973C12.5546 17.5457 11.8821 18.5478 9.98617 18.5478C8.09022 18.5478 7.43357 17.5478 6.36212 17.1947C5.08659 16.7728 4.09525 17.0202 3.76004 16.7891C3.48809 16.6013 3.70901 16.0809 3.33452 15.8396C2.89267 15.5554 2.32532 15.6059 1.47224 15.137C0.928861 14.837 1.23703 14.6513 1.41816 14.5635C4.51005 13.0666 5.00343 10.7553 5.02537 10.5839C5.0519 10.3762 5.08149 10.2129 4.85291 10.0017C4.63199 9.79763 3.65187 9.19099 3.37993 9.00119C2.92992 8.6869 2.73196 8.37311 2.87788 7.98739C2.97992 7.72055 3.2289 7.62004 3.49013 7.62004C3.57269 7.62029 3.65498 7.62953 3.73555 7.64759C4.22943 7.75474 4.70903 8.00219 4.98608 8.06903C5.01944 8.07759 5.05369 8.08221 5.08812 8.0828C5.23608 8.0828 5.28813 8.00831 5.27792 7.83892C5.24629 7.2986 5.16976 6.24552 5.25496 5.26132C5.3718 3.90722 5.80803 3.23628 6.32641 2.64291C6.57539 2.3577 7.74531 1.12145 9.9826 1.12145C12.2199 1.12145 13.3929 2.35259 13.6419 2.63678C14.1607 3.23016 14.5975 3.90109 14.7133 5.2552C14.7985 6.2394 14.725 7.29299 14.6903 7.8328C14.6786 8.01086 14.7322 8.07668 14.8801 8.07668C14.9146 8.07613 14.9488 8.0715 14.9822 8.0629C15.2597 7.99607 15.7393 7.74861 16.2332 7.64147C16.3138 7.62341 16.3961 7.61417 16.4786 7.61392C16.7414 7.61392 16.9889 7.71596 17.0909 7.98127C17.2368 8.36699 17.0399 8.68077 16.5894 8.99506C16.3174 9.18486 15.3373 9.791 15.1164 9.99559C14.8873 10.2068 14.9174 10.3701 14.9439 10.5777C14.9659 10.7517 15.4587 13.063 18.5511 14.5574C18.7338 14.6487 19.042 14.8345 18.4986 15.137Z"/>
    </symbol>

    <symbol viewBox="0 0 19 16" id="telegram">
        <path d="M0.286995 7.44244C2.23075 6.35378 4.4005 5.44519 6.42781 4.53195C9.91556 3.03612 13.4172 1.56623 16.9541 0.19777C17.6422 -0.0354018 18.8788 -0.26336 19 0.773585C18.9336 2.24137 18.6605 3.70056 18.4732 5.15975C17.9978 8.36864 17.4481 11.5665 16.9123 14.7649C16.7276 15.8301 15.4151 16.3817 14.5753 15.7C12.557 14.3137 10.5232 12.9411 8.53063 11.5227C7.87786 10.8483 8.48324 9.87996 9.06604 9.3984C10.7284 7.73253 12.4913 6.31743 14.0668 4.56562C14.4917 3.52205 13.2361 4.40148 12.8219 4.671C10.5462 6.26559 8.32611 7.95753 5.92677 9.35895C4.70118 10.0449 3.27274 9.4587 2.04771 9.07591C0.949324 8.61351 -0.660218 8.14759 0.286856 7.44258L0.286995 7.44244Z"/>
    </symbol>

    <symbol viewBox="0 0 37 38" id="viber">
        <path d="M27.993 15.198c-.146-1.185-.51-2.116-1.158-2.94-.84-1.062-1.914-1.698-3.503-2.075-1.036-.25-1.455-.222-1.83.12-.348.32-.416.963-.15 1.38.188.302.404.41 1.006.528.8.148 1.355.34 1.86.628 1.068.617 1.566 1.583 1.62 3.148.025.734.088.96.344 1.22.476.476 1.322.384 1.68-.186.133-.215.153-.308.167-.807.008-.31-.005-.768-.037-1.015z"/>
        <path d="M32.18 16.535c-.21-3.632-1.63-6.554-4.173-8.61-1.432-1.155-3.164-1.95-5.062-2.336-.695-.14-1.975-.25-2.194-.187-.207.06-.5.284-.63.487-.138.22-.17.71-.052.995.19.475.544.643 1.535.73 1.528.134 3.103.67 4.294 1.465a9.005 9.005 0 0 1 3.14 3.596c.602 1.25.974 3.05.964 4.662-.003.583.087.912.322 1.153.354.37.87.452 1.325.206.505-.265.623-.73.534-2.16zM36.815 30.52a3.986 3.986 0 0 0-.355-.71c-.746-1.128-4.754-4.265-6.756-5.29-1.142-.588-1.99-.783-2.617-.6-.675.19-1.03.505-2.16 1.91-.457.563-.924 1.09-1.05 1.174-.307.213-.91.386-1.337.386-.99-.007-2.783-.647-4.162-1.49-1.072-.65-2.445-1.82-3.5-2.976-1.243-1.358-2.09-2.555-2.76-3.907-.863-1.738-1.082-2.8-.72-3.576a2.88 2.88 0 0 1 .26-.468c.053-.06.61-.515 1.225-1.014 1.208-.96 1.403-1.18 1.628-1.838.286-.836.21-1.69-.23-2.55-.337-.652-1.22-2.075-1.86-2.994-.845-1.21-2.953-3.795-3.374-4.145-.757-.616-1.728-.723-2.8-.307-1.13.438-3.25 2.146-4.157 3.338C1.27 6.54.96 7.306.91 8.314c-.04.83.03 1.174.47 2.236C4.806 18.873 9.922 25.52 16.95 30.8c3.672 2.756 7.48 4.856 11.428 6.29 2.303.837 3.304.878 4.482.19.497-.296 1.73-1.56 2.416-2.478 1.137-1.53 1.557-2.236 1.675-2.8.084-.385.02-1.055-.135-1.482z"/>
        <path d="M36.444 17.37c-.075-2.056-.42-3.74-1.143-5.62-.71-1.847-1.43-3.053-2.792-4.684-1.287-1.53-2.286-2.403-3.87-3.375-2.213-1.353-4.904-2.25-7.92-2.626-1.03-.132-1.26-.122-1.577.088-.61.4-.602 1.394.01 1.787.204.124.385.17 1.207.277 1.263.17 2.075.33 3.04.593 3.778 1.033 6.684 3.145 8.626 6.28 1.626 2.61 2.3 5.224 2.205 8.56-.033 1.13-.01 1.328.164 1.6.33.504 1.2.604 1.647.184.277-.255.33-.447.385-1.412.026-.504.03-1.247.02-1.653z"/>
    </symbol>

    <symbol viewBox="0 0 36 32" id="vimeo">
        <path d="M35.982 7.203c-.16 3.504-2.607 8.3-7.342 14.392-4.894 6.36-9.036 9.54-12.422 9.54-2.1 0-3.875-1.936-5.326-5.81L7.987 14.67C6.91 10.8 5.755 8.86 4.517 8.86c-.268 0-1.21.567-2.824 1.695L0 8.375c1.777-1.56 3.53-3.122 5.253-4.685C7.623 1.643 9.403.566 10.59.457c2.8-.27 4.524 1.646 5.17 5.744.7 4.424 1.185 7.174 1.456 8.25.81 3.67 1.698 5.503 2.668 5.503.753 0 1.885-1.19 3.394-3.57 1.507-2.38 2.315-4.19 2.424-5.436.215-2.054-.593-3.083-2.424-3.083-.86 0-1.75.198-2.664.59 1.77-5.794 5.15-8.608 10.14-8.447 3.697.108 5.442 2.507 5.228 7.196"/>
    </symbol>

    <symbol viewBox="0 0 16 16" id="whatsapp">
        <path d="M13.608 2.325A7.88 7.88 0 0 0 7.998 0C3.625 0 .067 3.556.065 7.928c0 1.397.365 2.76 1.06 3.964L0 16l4.204-1.102a7.928 7.928 0 0 0 3.79.965h.004c4.37 0 7.93-3.557 7.93-7.93a7.88 7.88 0 0 0-2.32-5.608zm-5.61 12.2h-.003a6.583 6.583 0 0 1-3.355-.92l-.24-.143-2.496.654.666-2.43-.157-.25a6.573 6.573 0 0 1-1.007-3.508A6.6 6.6 0 0 1 8 1.338a6.55 6.55 0 0 1 4.66 1.934 6.55 6.55 0 0 1 1.93 4.662 6.6 6.6 0 0 1-6.592 6.59zm2.26-5.58c-.18-.068-.313-.1-.445.098s-.512.644-.627.777c-.116.132-.23.148-.43.05-.198-.1-.836-.31-1.593-.984-.59-.525-.987-1.174-1.102-1.373-.115-.198-.012-.305.087-.404.09-.09.2-.232.298-.348.1-.116.132-.198.198-.33.066-.133.033-.248-.017-.348-.05-.1-.446-1.074-.61-1.47-.162-.387-.325-.334-.447-.34a7.945 7.945 0 0 0-.38-.007.728.728 0 0 0-.53.247c-.18.2-.692.678-.692 1.653s.71 1.917.81 2.05c.098.132 1.396 2.133 3.384 2.99.473.205.842.327 1.13.418.474.15.906.13 1.248.08.38-.058 1.172-.48 1.338-.943.165-.463.165-.86.115-.942-.05-.083-.182-.133-.38-.232-.198-.1-1.172-.578-1.354-.644z"/>
    </symbol>

    <symbol viewBox="0 0 18 16" id="in">
        <path d="M4 16H0V5H4V16ZM2 3.69922C0.800781 3.69922 0 2.89844 0 1.89844C0 0.800781 0.800781 0 2 0C3.19922 0 4 0.800781 4 1.80078C4 2.89844 3.19922 3.69922 2 3.69922ZM18 16H14V10C14 8.39844 12.8984 8 12.6016 8C12.3008 8 11 8.19922 11 10C11 10.1992 11 16 11 16H7V5H11V6.60156C11.6016 5.69922 12.6016 5 14.5 5C16.3984 5 18 6.5 18 10V16Z"/>
    </symbol>

    <symbol viewBox="0 0 20 20" fill="none" id="tripadvisor">
        <path d="M4.95235 9.98096C4.49521 9.98096 4.11426 10.3238 4.11426 10.8191C4.11426 11.2762 4.45711 11.6571 4.95235 11.6571C5.44759 11.6571 5.79045 11.3143 5.79045 10.8191C5.79045 10.3238 5.4095 9.98096 4.95235 9.98096Z" fill="currentColor"/>
        <path d="M14.9714 9.98096C14.5143 9.98096 14.1333 10.3238 14.1333 10.8191C14.1333 11.2762 14.4762 11.6571 14.9714 11.6571C15.4285 11.6571 15.8095 11.3143 15.8095 10.8191C15.8095 10.3238 15.4285 9.98096 14.9714 9.98096Z" fill="currentColor"/>
        <path d="M19.0095 7.88571C19.2381 6.89524 20 5.86667 20 5.86667H16.6857C14.819 4.64762 12.5333 4 10.0571 4C7.46667 4 5.06667 4.68571 3.2 5.86667L0 5.90476C0 5.90476 0.761905 6.89524 0.990476 7.88571C0.380952 8.68571 0 9.71429 0 10.819C0 13.6 2.28571 15.8095 4.99048 15.8095C6.59048 15.8095 7.9619 15.0476 8.91429 13.9429L9.98095 15.5429L11.0476 13.9048C11.5048 14.5524 12.1524 15.0095 12.8762 15.3524C14.0952 15.9238 15.4286 16 16.7238 15.5048C19.2762 14.5524 20.6476 11.6571 19.6952 9.10476C19.5048 8.64762 19.2762 8.22857 19.0095 7.88571ZM13.2952 14.4762C12.3429 14.0571 11.581 13.2571 11.2381 12.2286C10.8952 11.2381 10.9333 10.1333 11.3524 9.18095C11.7714 8.22857 12.5714 7.46667 13.6 7.12381C15.6571 6.3619 17.9429 7.42857 18.7429 9.48571C19.5048 11.5429 18.4381 13.8286 16.381 14.6286C15.3524 14.9333 14.2857 14.8952 13.2952 14.4762ZM4.99048 14.819C2.78095 14.819 0.990476 13.0286 0.990476 10.819C0.990476 8.60952 2.78095 6.85714 4.99048 6.85714C7.2 6.85714 8.99048 8.60952 8.99048 10.819C8.99048 12.9905 7.2 14.819 4.99048 14.819ZM13.2571 6.17143C12 6.62857 11.0095 7.54286 10.4381 8.7619C10.2095 9.33333 10.0571 9.86667 10.019 10.4762C9.82857 7.92381 7.73333 5.90476 5.14286 5.86667C6.55238 5.25714 8.22857 4.91429 10.019 4.91429C11.8095 4.91429 13.4095 5.21905 14.8571 5.86667C14.2857 5.86667 13.7905 5.98095 13.2571 6.17143Z" fill="currentColor"/>
        <path d="M4.9525 8.30481C3.61917 8.30481 2.5144 9.40957 2.5144 10.7429C2.5144 12.0762 3.61917 13.181 4.9525 13.181C6.28583 13.181 7.39059 12.0762 7.39059 10.7429C7.39059 9.40957 6.28583 8.30481 4.9525 8.30481ZM4.9525 12.4191C4.03821 12.4191 3.3144 11.6953 3.3144 10.781C3.3144 9.86671 4.03821 9.14291 4.9525 9.14291C5.86679 9.14291 6.59059 9.86671 6.59059 10.781C6.59059 11.6572 5.82869 12.4191 4.9525 12.4191Z" fill="currentColor"/>
        <path d="M14.9714 8.30481C13.6381 8.30481 12.5333 9.40957 12.5333 10.7429C12.5333 12.0762 13.6381 13.181 14.9714 13.181C16.3048 13.181 17.4095 12.0762 17.4095 10.7429C17.4095 9.40957 16.3428 8.30481 14.9714 8.30481ZM14.9714 12.4191C14.0571 12.4191 13.3333 11.6953 13.3333 10.781C13.3333 9.86671 14.0571 9.14291 14.9714 9.14291C15.8857 9.14291 16.6095 9.86671 16.6095 10.781C16.5714 11.6572 15.8857 12.4191 14.9714 12.4191Z" fill="currentColor"/>
    </symbol>

    <defs><radialGradient id="instagradient" r="150%" cx="30%" cy="107%">
        <stop stop-color="#fdf497" offset="0" />
        <stop stop-color="#fdf497" offset="0.05" />
        <stop stop-color="#fd5949" offset="0.45" />
        <stop stop-color="#d6249f" offset="0.6" />
        <stop stop-color="#285AEB" offset="0.9" />
    </radialGradient></defs>

    <symbol viewBox="0 0 20 20" id="tiktok">
        <path d="M18.9972 8.09164C18.8348 8.10752 18.6719 8.11584 18.5088 8.11658C17.6282 8.1167 16.7614 7.89606 15.9867 7.47456C15.212 7.05305 14.5537 6.44397 14.0714 5.70227V13.9236C14.0714 15.1254 13.7174 16.3002 13.0542 17.2995C12.391 18.2987 11.4483 19.0776 10.3454 19.5375C9.24256 19.9974 8.02899 20.1177 6.85818 19.8832C5.68737 19.6488 4.61192 19.0701 3.76781 18.2203C2.92371 17.3705 2.34886 16.2878 2.11598 15.1091C1.88309 13.9303 2.00262 12.7086 2.45944 11.5983C2.91627 10.488 3.68988 9.53895 4.68244 8.87127C5.675 8.20359 6.84194 7.84722 8.03569 7.84722C8.16168 7.84722 8.28484 7.85862 8.40871 7.86646V10.8608C8.28484 10.8459 8.1631 10.8231 8.03569 10.8231C7.21869 10.8231 6.43516 11.1498 5.85745 11.7314C5.27975 12.313 4.9552 13.1018 4.9552 13.9243C4.9552 14.7468 5.27975 15.5356 5.85745 16.1172C6.43516 16.6988 7.21869 17.0256 8.03569 17.0256C9.73731 17.0256 11.24 15.6759 11.24 13.9628L11.2698 0H14.1153C14.2453 1.2447 14.8057 2.40379 15.6986 3.2746C16.5916 4.14541 17.7601 4.67252 19 4.76377V8.09164"/>
    </symbol>

    <symbol viewBox="0 0 20 20" id="messenger">
        <path d="M16.1263 7.42446L13.1789 12.0543C12.7158 12.7634 11.6632 12.9719 10.9895 12.4714L8.63158 10.7196C8.42105 10.5527 8.12632 10.5527 7.91579 10.7196L4.75789 13.0971C4.33684 13.4308 3.78947 12.8885 4.08421 12.4714L7.07368 7.84156C7.53684 7.13248 8.58947 6.92393 9.26316 7.42446L11.6211 9.17629C11.8316 9.34314 12.1263 9.34314 12.3368 9.17629L15.4947 6.7988C15.8316 6.50683 16.4211 7.00735 16.1263 7.42446ZM10.0632 0C4.37895 0 0 4.12933 0 9.67682C0 12.5548 1.22105 15.0575 3.15789 16.851C3.32632 16.9761 3.41053 17.1847 3.41053 17.435L3.45263 19.2285C3.49474 19.8125 4.04211 20.1461 4.54737 19.9376L6.52632 19.0617C6.69474 18.9782 6.86316 18.9782 7.03158 19.02C7.91579 19.2702 8.92632 19.3953 9.93684 19.3953C15.6211 19.3953 20 15.266 20 9.71853C20 4.17104 15.7474 0 10.0632 0Z"/>
    </symbol>


    <symbol viewBox="0 0 20 20" fill="none" id="dribble-color">
        <path d="M10 .665a9.326 9.326 0 0 1 9.33 9.33c0 5.156-4.173 9.34-9.33 9.34a9.326 9.326 0 0 1-9.327-9.33C.673 4.848 4.845.664 10 .664z"
              fill="#E74D89"/>
        <path d="M10 20c-5.516 0-10-4.482-10-9.996C0 4.482 4.484 0 10 0s10 4.482 10 9.996S15.516 20 10 20zm8.43-8.635c-.29-.094-2.64-.79-5.32-.368 1.117 3.066 1.57 5.57 1.656 6.085a8.49 8.49 0 0 0 3.664-5.717zm-5.094 6.507c-.125-.75-.625-3.363-1.82-6.476a.145.145 0 0 1-.055.016c-4.82 1.68-6.546 5.02-6.702 5.334a8.502 8.502 0 0 0 5.242 1.8 8.336 8.336 0 0 0 3.336-.674zm-9.68-2.15c.196-.33 2.54-4.208 6.946-5.64.11-.04.226-.07.335-.102-.21-.485-.445-.97-.695-1.447-4.265 1.275-8.406 1.22-8.78 1.213 0 .086-.01.172-.01.258a8.552 8.552 0 0 0 2.204 5.718zM1.64 8.26c.383.008 3.9.023 7.9-1.04C8.124 4.7 6.593 2.59 6.374 2.283A8.563 8.563 0 0 0 1.64 8.26zM8 1.705c.234.313 1.79 2.425 3.188 4.998 3.04-1.142 4.32-2.863 4.476-3.082A8.51 8.51 0 0 0 10 1.47a8.86 8.86 0 0 0-2 .235zm8.61 2.902c-.18.242-1.61 2.08-4.766 3.37.195.408.39.822.57 1.237.063.15.125.297.188.438 2.843-.36 5.664.22 5.945.274a8.513 8.513 0 0 0-1.938-5.32z"
              fill="#B2215A"/>
    </symbol>
    <symbol viewBox="0 0 20 20" fill="none" id="fb-alt-color">
        <path fill-rule="evenodd" clip-rule="evenodd"
              d="M20 10.06C20 4.506 15.523 0 10 0S0 4.505 0 10.06c0 5.023 3.657 9.185 8.438 9.94v-7.03h-2.54v-2.91h2.54V7.846c0-2.522 1.492-3.915 3.777-3.915 1.094 0 2.238.197 2.238.197v2.476h-1.26c-1.243 0-1.63.775-1.63 1.57v1.888h2.773l-.443 2.91h-2.33V20c4.78-.755 8.437-4.917 8.437-9.94z"
              fill="#1877F2"/>
        <path d="M8.438 12.97V20h3.124v-7.03h2.33l.444-2.91h-2.774V8.175c0-.796.388-1.57 1.63-1.57h1.26V4.126s-1.143-.197-2.237-.197c-2.285 0-3.777 1.393-3.777 3.915v2.216h-2.54v2.91h2.54z"
              fill="#fff"/>
    </symbol>
    <symbol viewBox="0 0 20 21" fill="none" id="in-color">
        <path d="M0 1.433C0 .643.662 0 1.478 0h17.044C19.338 0 20 .642 20 1.433V18.57c0 .79-.662 1.432-1.478 1.432H1.478C.662 20.002 0 19.362 0 18.57V1.433z"
              fill="#069"/>
        <path d="M6.078 16.74V7.733H3.085v9.005h2.993zM4.582 6.504c1.043 0 1.693-.692 1.693-1.556-.02-.885-.65-1.557-1.673-1.557-1.024 0-1.693.672-1.693 1.556 0 .863.648 1.555 1.652 1.555h.02zM7.734 16.74h2.993v-5.03c0-.268.02-.537.098-.73.217-.537.71-1.094 1.536-1.094 1.084 0 1.517.825 1.517 2.036v4.817h2.993v-5.164c0-2.766-1.477-4.053-3.446-4.053-1.614 0-2.323.902-2.717 1.517h.02V7.734H7.735c.04.845 0 9.005 0 9.005z"
              fill="#fff"/>
    </symbol>
    <symbol viewBox="0 0 20 20" fill="none" id="messenger-color">
        <path fill-rule="evenodd" clip-rule="evenodd"
              d="M10 0C4.366 0 0 4.127 0 9.7c0 2.916 1.195 5.435 3.14 7.175.164.147.262.35.27.57l.055 1.78a.8.8 0 0 0 1.123.707l1.983-.875a.798.798 0 0 1 .535-.04c.91.25 1.883.384 2.895.384 5.634 0 10-4.126 10-9.7C20 4.127 15.634 0 10 0z"
              fill="#3785F7"/>
        <path fill-rule="evenodd" clip-rule="evenodd"
              d="M3.996 12.537l2.938-4.66a1.5 1.5 0 0 1 2.17-.4l2.335 1.752a.6.6 0 0 0 .72-.003l3.156-2.394c.42-.32.972.185.688.632l-2.936 4.658a1.5 1.5 0 0 1-2.17.4L8.564 10.77a.6.6 0 0 0-.722.003L4.685 13.17c-.42.32-.972-.186-.688-.633z"
              fill="#fff"/>
    </symbol>
    <symbol viewBox="0 0 20 20" fill="none" id="p-color">
        <path fill-rule="evenodd" clip-rule="evenodd"
              d="M7.18 19.558c.888.287 2.192-.714 3.175-.714 4.323-3.077 8.812-2.948 8.812-8.01a9.167 9.167 0 0 0-18.334 0 9.172 9.172 0 0 0 6.347 8.724z"
              fill="#fff"/>
        <path fill-rule="evenodd" clip-rule="evenodd"
              d="M0 10c0 4.237 2.636 7.855 6.356 9.312-.088-.792-.167-2.005.035-2.87.182-.78 1.173-4.97 1.173-4.97s-.3-.6-.3-1.483c0-1.393.806-2.43 1.81-2.43.853 0 1.264.64 1.264 1.408 0 .86-.545 2.142-.827 3.33-.236.995.498 1.808 1.48 1.808 1.777 0 3.143-1.875 3.143-4.58 0-2.393-1.72-4.069-4.177-4.069-2.846 0-4.517 2.136-4.517 4.34 0 .86.33 1.782.744 2.284a.297.297 0 0 1 .07.287c-.076.315-.245.994-.278 1.133-.044.183-.145.222-.333.133-1.25-.58-2.03-2.408-2.03-3.875 0-3.153 2.29-6.05 6.607-6.05 3.467 0 6.163 2.472 6.163 5.775 0 3.447-2.172 6.22-5.19 6.22-1.01 0-1.966-.525-2.29-1.148l-.624 2.378c-.226.866-.836 1.956-1.242 2.62.937.29 1.93.447 2.962.447 5.523 0 10-4.477 10-10 0-5.522-4.477-10-10-10C4.478 0 0 4.478 0 10z"
              fill="#E60023"/>
    </symbol>
    <symbol viewBox="0 0 20 20" fill="none" id="periscope-color">
        <path d="M17.62 7.81c0 5.808-6.245 12.19-7.81 12.19C8.246 20 2 13.618 2 7.81a7.81 7.81 0 0 1 15.62 0z"
              fill="#3FA4C4"/>
        <path d="M9.81 3.097c-.375 0-.74.045-1.09.128A1.912 1.912 0 1 1 5.97 5.06a4.74 4.74 0 1 0 3.84-1.962z"
              fill="#fff"/>
    </symbol>
    <symbol viewBox="0 0 20 20" fill="none" id="skype-color">
        <path d="M10.255 17.833c-4.02 0-8.59-4.774-8.223-8.737.365-3.782 5.482-7.295 9.274-6.754 3.335.45 6.304 4.593 6.12 7.88-.18 3.467-3.653 7.61-7.17 7.61z"
              fill="#fff"/>
        <path d="M13.133 19.858c-.274-.09-.685-.18-.913-.27-.275-.135-.595-.135-1.6-.09-.96.045-1.462 0-2.146-.09-3.655-.63-6.58-3.242-7.63-6.844-.183-.676-.228-1.036-.228-2.657 0-1.757-.046-1.89-.274-2.612C-.983 3.737 1.712 0 5.55 0c.776 0 1.736.225 2.284.495.366.18.594.225 2.01.225 1.28 0 1.78.045 2.42.226 2.88.72 5.21 2.566 6.442 5.133.777 1.575 1.052 3.197.868 5.042-.09.992-.09 1.082.137 1.667.732 2.115.047 4.547-1.735 5.988-.548.45-1.644.946-2.33 1.126-.685.135-1.78.135-2.467-.046h-.045zM11.9 16.39c1.508-.314 2.832-1.215 3.335-2.295.64-1.306.456-2.838-.412-3.783-.73-.81-1.827-1.26-4.43-1.89-1.737-.406-2.15-.587-2.514-.992-.32-.36-.367-.63-.092-1.035.274-.45.96-.72 1.873-.766 1.326-.09 1.92.224 2.696 1.44.594.9 1.188 1.126 1.965.765 1.006-.495.915-2.116-.182-3.062-1.05-.855-2.193-1.215-4.112-1.215-2.01 0-3.38.405-4.294 1.305-.73.72-.868 1.126-.868 2.252 0 1.17.137 1.53.913 2.206.823.767 1.508 1.037 3.975 1.623 1.736.405 2.193.63 2.604 1.08.183.226.274.405.274.81 0 .45-.046.54-.41.902-.55.54-1.372.765-2.422.72-1.234-.09-1.782-.45-2.42-1.71-.458-.856-.824-1.172-1.418-1.172-1.325 0-1.78 1.08-1.096 2.477.594 1.216 1.782 2.026 3.29 2.34.913.182 2.923.182 3.79 0H11.9z"
              fill="#00AFF0"/>
    </symbol>
    <symbol viewBox="0 0 20 20" fill="none" id="telegram-color">
        <path d="M10 20c5.523 0 10-4.477 10-10S15.523 0 10 0 0 4.477 0 10s4.477 10 10 10z" fill="#64A5F0"/>
        <path d="M3.724 10.49c1.17-.645 2.474-1.182 3.693-1.722a192.13 192.13 0 0 1 6.33-2.564c.415-.138 1.16-.273 1.232.34-.04.87-.206 1.732-.318 2.595-.286 1.897-.617 3.788-.94 5.68-.11.63-.9.957-1.405.553-1.213-.82-2.437-1.63-3.635-2.47-.393-.4-.028-.972.322-1.257 1-.985 2.06-1.822 3.008-2.858.255-.618-.5-.098-.75.062-1.368.943-2.703 1.944-4.146 2.773-.737.405-1.596.06-2.333-.168-.66-.273-1.628-.55-1.06-.966z"
              fill="#fff"/>
    </symbol>
    <symbol viewBox="0 0 20 20" fill="none" id="tiktok-color">
        <path d="M8.625 7.544v-.747a5.55 5.55 0 0 0-.786-.067 5.824 5.824 0 0 0-5.57 4.063 5.796 5.796 0 0 0 2.23 6.51 5.793 5.793 0 0 1-1.112-6.213A5.804 5.804 0 0 1 5.48 8.546c.93-.63 2.02-.977 3.145-1z"
              fill="#25F4EE"/>
        <path d="M8.766 16a2.66 2.66 0 0 0 2.658-2.54V.802h2.32A4.325 4.325 0 0 1 13.678 0h-3.174v12.646a2.66 2.66 0 0 1-2.658 2.558 2.71 2.71 0 0 1-1.228-.306 2.662 2.662 0 0 0 2.15 1.1zM18.08 5.095v-.703c-.855 0-1.69-.25-2.4-.722a4.404 4.404 0 0 0 2.4 1.426z"
              fill="#25F4EE"/>
        <path d="M15.68 3.67A4.347 4.347 0 0 1 14.59.796h-.847A4.374 4.374 0 0 0 15.68 3.67zM7.84 9.894a2.67 2.67 0 0 0-1.638.57 2.654 2.654 0 0 0-.78 3.176c.245.54.663.982 1.19 1.258a2.644 2.644 0 0 1 .765-3.814c.418-.255.9-.39 1.39-.39.265.004.53.045.785.123V7.6c-.26-.04-.523-.06-.786-.062h-.14v2.447a2.74 2.74 0 0 0-.787-.092z"
              fill="#FE2C55"/>
        <path d="M18.08 5.096v2.448a7.55 7.55 0 0 1-4.403-1.426v6.43c-.006 3.21-2.618 5.807-5.838 5.807a5.792 5.792 0 0 1-3.34-1.053 5.845 5.845 0 0 0 6.398 1.45 5.823 5.823 0 0 0 2.682-2.133 5.793 5.793 0 0 0 1.012-3.27V6.938A7.563 7.563 0 0 0 19 8.345v-3.15c-.31-.002-.618-.035-.92-.1z"
              fill="#FE2C55"/>
        <path d="M13.677 12.548v-6.43a7.55 7.55 0 0 0 4.408 1.407V5.078A4.405 4.405 0 0 1 15.68 3.67 4.388 4.388 0 0 1 13.744.796h-2.32V13.46a2.65 2.65 0 0 1-.557 1.518 2.664 2.664 0 0 1-2.957.89 2.663 2.663 0 0 1-1.305-.958 2.647 2.647 0 0 1-.41-4.434 2.67 2.67 0 0 1 1.638-.57c.266.002.53.043.786.122V7.58c-1.13.02-2.23.366-3.165.997a5.805 5.805 0 0 0-2.104 2.557 5.782 5.782 0 0 0 1.143 6.235 5.79 5.79 0 0 0 3.346.985c3.22 0 5.83-2.598 5.837-5.807z"
              fill="#000"/>
    </symbol>
    <symbol viewBox="0 0 20 20" fill="none" id="tripadvisor-color">
        <path d="M10 20c5.523 0 10-4.477 10-10S15.523 0 10 0 0 4.477 0 10s4.477 10 10 10z" fill="#34E0A1"/>
        <path d="M16.176 8.048l1.206-1.313h-2.675a8.36 8.36 0 0 0-9.406 0H2.62l1.204 1.313a3.69 3.69 0 1 0 4.994 5.432L10 14.767l1.183-1.286a3.69 3.69 0 0 0 5.97-1.444 3.69 3.69 0 0 0-.977-3.988zM6.31 13.27a2.498 2.498 0 1 1 0-4.994 2.498 2.498 0 0 1 0 4.995zM10 10.704C10 9.06 8.805 7.65 7.23 7.048a7.202 7.202 0 0 1 5.54 0C11.195 7.65 10 9.06 10 10.703zm3.69 2.568a2.498 2.498 0 1 1 0-4.994 2.498 2.498 0 0 1 0 4.995zm0-3.804a1.308 1.308 0 1 0 0 2.618 1.308 1.308 0 0 0 0-2.618zm-6.07 1.308a1.31 1.31 0 1 1-2.618.002 1.31 1.31 0 0 1 2.618-.002z"
              fill="#000"/>
    </symbol>
    <symbol viewBox="0 0 20 20" fill="none" id="vk-alt-color">
        <path fill-rule="evenodd" clip-rule="evenodd"
              d="M6.93 0h6.14C18.673 0 20 1.327 20 6.93v6.14c0 5.603-1.327 6.93-6.93 6.93H6.93C1.327 20 0 18.673 0 13.07V6.93C0 1.327 1.327 0 6.93 0z"
              fill="#4680C2"/>
        <path fill-rule="evenodd" clip-rule="evenodd"
              d="M16.373 6.888c.098-.31 0-.537-.438-.537H14.48c-.366 0-.535.2-.634.41 0 0-.748 1.807-1.792 2.98-.34.338-.494.45-.678.45-.1 0-.226-.112-.226-.423V6.874c0-.367-.113-.537-.423-.537H8.44c-.225 0-.367.17-.367.34 0 .352.523.437.58 1.425v2.145c0 .466-.086.55-.27.55-.493 0-1.693-1.82-2.413-3.895-.14-.41-.282-.565-.65-.565H3.854c-.423 0-.494.198-.494.41 0 .38.493 2.3 2.3 4.84 1.2 1.737 2.907 2.668 4.446 2.668.93 0 1.044-.21 1.044-.564V12.38c0-.423.085-.494.38-.494.213 0 .594.113 1.455.946.988.988 1.158 1.44 1.708 1.44h1.454c.423 0 .62-.212.508-.62-.127-.41-.607-1.004-1.228-1.71-.34-.394-.847-.832-1.002-1.044-.212-.282-.155-.395 0-.65-.014 0 1.764-2.51 1.948-3.358z"
              fill="#fff"/>
    </symbol>
    <symbol viewBox="0 0 20 21" fill="none" id="whatsapp-color">
        <path d="M17.086 2.907A9.918 9.918 0 0 0 10.042 0C4.552 0 .086 4.446.084 9.91a9.86 9.86 0 0 0 1.33 4.956L0 20l5.28-1.377a9.987 9.987 0 0 0 4.758 1.207h.004c5.488 0 9.956-4.447 9.958-9.91a9.83 9.83 0 0 0-2.914-7.013zm-7.044 15.25h-.003a8.295 8.295 0 0 1-4.214-1.15l-.302-.178-3.133.817.837-3.04-.197-.312A8.19 8.19 0 0 1 1.765 9.91c.002-4.54 3.714-8.236 8.28-8.236 2.21 0 4.29.86 5.852 2.416a8.17 8.17 0 0 1 2.422 5.828c-.003 4.542-3.716 8.238-8.278 8.238z"
              fill="#E0E0E0"/>
        <path d="M.457 19.43l1.348-4.9A9.408 9.408 0 0 1 .537 9.802C.54 4.587 4.802.344 10.04.344c2.542 0 4.928.986 6.722 2.774a9.378 9.378 0 0 1 2.78 6.69c-.002 5.216-4.265 9.46-9.502 9.46h-.004a9.533 9.533 0 0 1-4.54-1.152L.455 19.43z"
              fill="#65CF72"/>
        <path fill-rule="evenodd" clip-rule="evenodd"
              d="M7.58 5.703c-.183-.408-.377-.416-.553-.423-.143-.006-.307-.006-.47-.006-.165 0-.43.062-.657.307-.225.246-.86.838-.86 2.043s.88 2.37 1.004 2.532c.123.164 1.7 2.715 4.2 3.697 2.08.815 2.502.653 2.953.612.45-.04 1.455-.592 1.66-1.164.205-.572.205-1.062.143-1.164-.06-.102-.225-.163-.47-.286-.247-.122-1.456-.715-1.682-.796-.225-.082-.39-.123-.553.122-.164.245-.635.797-.78.96-.142.164-.286.184-.532.062-.246-.123-1.038-.382-1.978-1.216-.73-.65-1.225-1.45-1.368-1.695-.144-.245-.016-.378.108-.5.11-.11.246-.286.37-.43.122-.142.163-.244.245-.407.082-.164.04-.307-.02-.43-.062-.122-.54-1.333-.76-1.817z"
              fill="#fff"/>
        <path d="M17.004 2.875A9.804 9.804 0 0 0 10.04.002C4.616.002.2 4.397.198 9.8c0 1.725.453 3.41 1.314 4.897L.116 19.773l5.218-1.362a9.872 9.872 0 0 0 4.704 1.194h.004c5.426 0 9.843-4.396 9.845-9.797a9.716 9.716 0 0 0-2.88-6.932zM10.04 17.95h-.002a8.2 8.2 0 0 1-4.164-1.136l-.3-.177-3.096.81.827-3.006-.195-.307A8.095 8.095 0 0 1 1.86 9.8c0-4.49 3.67-8.143 8.184-8.143 2.186 0 4.24.85 5.785 2.388a8.076 8.076 0 0 1 2.393 5.76c-.002 4.49-3.672 8.144-8.182 8.144z"
              fill="#fff"/>
    </symbol>
    <symbol viewBox="0 0 20 20" fill="none" id="yt-color">
        <path d="M19.586 5.186a2.515 2.515 0 0 0-1.772-1.772C16.256 3 9.997 3 9.997 3s-6.253 0-7.81.42c-.86.23-1.542.9-1.773 1.766C0 6.744 0 10.002 0 10.002s0 3.257.42 4.815c.23.86.907 1.54 1.772 1.772 1.552.413 7.805.413 7.805.413s6.253 0 7.81-.42a2.526 2.526 0 0 0 1.773-1.772c.42-1.557.42-4.815.42-4.815s.006-3.25-.414-4.81z"
              fill="#F00"/>
        <path d="M7.994 13.003L13.2 10l-5.206-3v6.003z" fill="#fff"/>
    </symbol>
    <symbol viewBox="0 0 19 20" fill="none" id="viber-color">
        <path d="M11.5 1H6L3.5 2L1 4.5L0.5 10.5L2 14.5L5 16.5V19.5H5.5L8 17L9.5 16.5L14 16L16.5 14.5L17.5 12.5L18.5 8L16.5 2.5L11.5 1Z" fill="white"/>
        <path d="M16.8266 1.95076C16.3296 1.49217 14.3211 0.0341638 9.84745 0.0143555C9.84745 0.0143555 4.57185 -0.303777 2.00007 2.05521C0.568474 3.48711 0.0648634 5.58228 0.0117412 8.17987C-0.041381 10.7775 -0.11011 15.6455 4.58235 16.9654H4.58685L4.58385 18.9796C4.58385 18.9796 4.55384 19.795 5.09076 19.9613C5.74024 20.163 6.12139 19.5432 6.74145 18.8751C7.0818 18.5084 7.55179 17.9697 7.90594 17.5579C11.1152 17.828 13.5834 17.2106 13.8637 17.1194C14.5117 16.9093 18.1783 16.4393 18.7747 11.5719C19.3902 6.55469 18.477 3.38116 16.8266 1.95076ZM17.3704 11.212C16.8671 15.2763 13.8931 15.5317 13.3448 15.7076C13.1116 15.7826 10.9438 16.322 8.21777 16.144C8.21777 16.144 6.18652 18.5945 5.55206 19.2317C5.45302 19.3313 5.33657 19.3715 5.25883 19.3517C5.14959 19.325 5.11958 19.1957 5.12078 19.0066C5.12258 18.7365 5.13818 15.6596 5.13818 15.6596C5.13818 15.6596 5.13578 15.6596 5.13818 15.6596C1.16872 14.5575 1.40012 10.4143 1.44514 8.24469C1.49016 6.07509 1.89773 4.29775 3.10844 3.10235C5.28374 1.13202 9.76492 1.42645 9.76492 1.42645C13.5492 1.44295 15.3626 2.58253 15.783 2.96429C17.1792 4.15969 17.8905 7.02018 17.3704 11.2108V11.212Z" fill="#7360F2"/>
        <path fill-rule="evenodd" clip-rule="evenodd" d="M9.92442 6.48991C9.9317 6.35037 10.0507 6.24315 10.1903 6.25043C10.7123 6.27766 11.1467 6.43569 11.4561 6.75555C11.7642 7.07418 11.9153 7.51931 11.9418 8.05391C11.9487 8.19347 11.8412 8.31221 11.7017 8.31914C11.5621 8.32606 11.4433 8.21854 11.4364 8.07898C11.4137 7.62136 11.2882 7.30982 11.0923 7.10733C10.8977 6.90607 10.6006 6.77853 10.1639 6.75575C10.0244 6.74847 9.91714 6.62945 9.92442 6.48991Z" fill="#7360F2"/>
        <path fill-rule="evenodd" clip-rule="evenodd" d="M9.54073 5.12682C9.55092 4.98746 9.67216 4.88276 9.81152 4.89296C10.874 4.97072 11.7292 5.33375 12.3521 6.01372L12.3522 6.01381C12.9684 6.6871 13.2612 7.52466 13.2399 8.50707C13.2369 8.64677 13.1212 8.75756 12.9815 8.75454C12.8418 8.75151 12.731 8.63582 12.734 8.49612C12.7528 7.62975 12.498 6.92267 11.9789 6.35543C11.4614 5.79055 10.7379 5.46812 9.77459 5.39762C9.63523 5.38742 9.53053 5.26618 9.54073 5.12682Z" fill="#7360F2"/>
        <path fill-rule="evenodd" clip-rule="evenodd" d="M9.09418 3.83111C9.09516 3.69138 9.20922 3.5789 9.34895 3.57987C10.8172 3.5901 12.0583 4.0789 13.0548 5.05029C14.0596 6.0298 14.5565 7.36331 14.5691 9.01951C14.5701 9.15924 14.4577 9.27337 14.318 9.27444C14.1783 9.2755 14.0641 9.16309 14.0631 9.02336C14.0513 7.47142 13.5896 6.27828 12.7016 5.41262C11.8052 4.53884 10.6923 4.09525 9.34542 4.08587C9.20569 4.0849 9.09321 3.97084 9.09418 3.83111Z" fill="#7360F2"/>
        <path d="M10.2271 11.4552C10.2271 11.4552 10.5827 11.4852 10.7742 11.2493L11.1475 10.7796C11.3276 10.5467 11.7622 10.3981 12.1878 10.6352C12.5067 10.8171 12.8163 11.0148 13.1155 11.2277C13.3979 11.4353 13.9762 11.9179 13.978 11.9179C14.2535 12.1505 14.3172 12.4921 14.1296 12.8522C14.1296 12.8543 14.1281 12.8579 14.1281 12.8597C13.9215 13.2179 13.6592 13.5409 13.3511 13.8165C13.3475 13.8183 13.3475 13.8201 13.3442 13.8219C13.0764 14.0456 12.8134 14.1728 12.5551 14.2034C12.5171 14.2101 12.4784 14.2125 12.4399 14.2106C12.326 14.2117 12.2127 14.1943 12.1043 14.159L12.0959 14.1467C11.698 14.0344 11.0335 13.7535 9.92693 13.1431C9.28659 12.794 8.67695 12.3913 8.10457 11.9393C7.81768 11.7128 7.54401 11.4701 7.28493 11.2124L7.25732 11.1847L7.22971 11.1571L7.2021 11.1295C7.19279 11.1205 7.18379 11.1112 7.17448 11.1019C6.9167 10.8428 6.674 10.5692 6.44758 10.2823C5.99565 9.70994 5.59295 9.10042 5.24378 8.4602C4.63332 7.35334 4.3524 6.68946 4.24016 6.2909L4.22785 6.28249C4.19267 6.17417 4.17533 6.06084 4.17653 5.94695C4.17443 5.9084 4.17675 5.86973 4.18343 5.8317C4.21565 5.5738 4.343 5.31059 4.56549 5.04207C4.56729 5.03877 4.5691 5.03877 4.5709 5.03517C4.8465 4.72704 5.16949 4.46483 5.5277 4.25845C5.5295 4.25845 5.5331 4.25665 5.5352 4.25665C5.89535 4.06907 6.23689 4.13269 6.46919 4.40671C6.47099 4.40851 6.95269 4.98685 7.15948 5.26927C7.37234 5.56872 7.57007 5.87863 7.75193 6.19786C7.98902 6.62313 7.84046 7.05862 7.60756 7.23809L7.13787 7.61145C6.90077 7.80293 6.93198 8.15858 6.93198 8.15858C6.93198 8.15858 7.62767 10.7916 10.2271 11.4552Z" fill="#7360F2"/>
    </symbol>

    <symbol viewBox="0 0 20 20" fill="none" id="snapchat-color">
        <rect width="20" height="20" rx="4" fill="#FFFC00"/>
        <path d="M15.7789 13.0296C13.6488 11.9985 13.3093 10.4065 13.2942 10.2884C13.2759 10.1453 13.2552 10.0329 13.413 9.8874C13.5652 9.74682 14.2403 9.32897 14.4276 9.19824C14.7372 8.98175 14.8736 8.76562 14.7731 8.49994C14.7028 8.31614 14.5316 8.2469 14.3513 8.2469C14.2945 8.24708 14.2378 8.25344 14.1823 8.26588C13.8421 8.33968 13.5118 8.51013 13.3206 8.55617C13.2976 8.56209 13.274 8.56528 13.2503 8.56566C13.1484 8.56566 13.1097 8.52032 13.1196 8.39767C13.1435 8.02585 13.1941 7.30014 13.1354 6.62223C13.0549 5.68952 12.7541 5.22739 12.3974 4.81867C12.2248 4.62046 11.4235 3.76894 9.87723 3.76894C8.33092 3.76894 7.53071 4.62046 7.35921 4.81621C7.00145 5.22493 6.70097 5.68706 6.62119 6.61977C6.56251 7.29768 6.61522 8.02304 6.63701 8.39521C6.64404 8.51189 6.60819 8.5632 6.50628 8.5632C6.48256 8.56279 6.45897 8.5596 6.43599 8.55371C6.24516 8.50767 5.91481 8.33722 5.57463 8.26342C5.51913 8.25098 5.46245 8.24462 5.40559 8.24445C5.2246 8.24445 5.05415 8.31473 4.98386 8.49748C4.88335 8.76316 5.01901 8.97929 5.32968 9.19578C5.51699 9.32651 6.19209 9.74401 6.34427 9.88494C6.50171 10.0304 6.48132 10.1429 6.46305 10.2859C6.44794 10.4058 6.1081 11.9978 3.97841 13.0271C3.85365 13.0876 3.64139 13.2155 4.01566 13.4221C4.60326 13.7468 4.99441 13.7121 5.2984 13.9078C5.55635 14.074 5.40383 14.4325 5.59149 14.5618C5.82203 14.721 6.50346 14.5506 7.38381 14.8412C8.12182 15.0844 8.57025 15.7715 9.87899 15.7715C11.1877 15.7715 11.6492 15.0812 12.3742 14.8412C13.2527 14.5506 13.9356 14.721 14.1665 14.5618C14.3538 14.4325 14.2016 14.074 14.4596 13.9078C14.7636 13.7121 15.1544 13.7468 15.7423 13.4221C16.1159 13.2179 15.9036 13.09 15.7789 13.0296Z" fill="white"/>
        <path d="M16.7058 12.9083C16.6102 12.6483 16.4281 12.5091 16.2208 12.3938C16.1818 12.371 16.1459 12.3527 16.1153 12.3386C16.0535 12.3067 15.9902 12.2757 15.9273 12.2431C15.281 11.9004 14.7764 11.4681 14.4264 10.9558C14.327 10.8115 14.2407 10.6586 14.1688 10.4989C14.1389 10.4135 14.1403 10.365 14.1617 10.3207C14.183 10.2866 14.2111 10.2573 14.2443 10.2346C14.3554 10.1612 14.4699 10.0867 14.5476 10.0364C14.6861 9.94679 14.7957 9.8758 14.8663 9.82555C15.1317 9.63999 15.3172 9.44283 15.4332 9.22249C15.5141 9.07025 15.5613 8.90237 15.5716 8.73027C15.5818 8.55817 15.5549 8.38588 15.4926 8.22512C15.3169 7.76263 14.8801 7.47551 14.3508 7.47551C14.2392 7.4754 14.1278 7.48718 14.0187 7.51065C13.9895 7.51698 13.9604 7.52366 13.9319 7.53104C13.9368 7.21474 13.9298 6.88088 13.9017 6.55229C13.8019 5.39713 13.3974 4.79161 12.9756 4.30874C12.7056 4.00615 12.3875 3.75016 12.0341 3.55105C11.3942 3.18556 10.6685 3 9.87739 3C9.08632 3 8.36412 3.18556 7.72346 3.55105C7.36925 3.75022 7.05052 4.00673 6.78021 4.31014C6.35849 4.79301 5.95399 5.39959 5.85418 6.5537C5.82607 6.88229 5.81904 7.21791 5.82361 7.53244C5.79514 7.52506 5.76632 7.51838 5.73715 7.51206C5.62801 7.48859 5.51668 7.47681 5.40505 7.47691C4.87544 7.47691 4.4379 7.76404 4.26289 8.22652C4.20033 8.38736 4.17313 8.55977 4.18314 8.73205C4.19314 8.90433 4.24012 9.07244 4.32088 9.22495C4.4372 9.4453 4.62276 9.64245 4.88809 9.82801C4.95838 9.87721 5.06837 9.9482 5.20684 10.0389C5.2817 10.0874 5.39099 10.1584 5.49818 10.2293C5.53568 10.2536 5.56756 10.2856 5.59166 10.3232C5.61415 10.3692 5.61485 10.4188 5.58147 10.5101C5.51046 10.6665 5.42566 10.8162 5.32808 10.9575C4.98579 11.4583 4.49589 11.8828 3.87034 12.2227C3.53894 12.3984 3.19453 12.5158 3.04904 12.9111C2.93939 13.2095 3.01108 13.549 3.28977 13.8351C3.39205 13.9418 3.51068 14.0316 3.6412 14.1011C3.91279 14.2503 4.20158 14.3659 4.50116 14.4451C4.56298 14.4611 4.62168 14.4873 4.67477 14.5228C4.77633 14.6117 4.76192 14.7456 4.89723 14.9417C4.96515 15.0431 5.05145 15.1308 5.15166 15.2004C5.43562 15.3965 5.75473 15.4088 6.0928 15.4218C6.3982 15.4334 6.74436 15.4467 7.13973 15.5771C7.30349 15.6312 7.47359 15.736 7.67074 15.8583C8.14412 16.1492 8.79217 16.5474 9.87669 16.5474C10.9612 16.5474 11.6138 16.1471 12.0907 15.8551C12.2865 15.7349 12.4555 15.6312 12.6147 15.5785C13.0101 15.4478 13.3562 15.4348 13.6616 15.4232C13.9997 15.4102 14.3188 15.3979 14.6028 15.2018C14.7215 15.119 14.8204 15.011 14.8924 14.8855C14.9897 14.72 14.9872 14.6043 15.0786 14.5235C15.1284 14.4897 15.1835 14.4646 15.2417 14.449C15.5454 14.3695 15.8381 14.2529 16.1132 14.1018C16.2519 14.0274 16.3767 13.9297 16.4822 13.8129L16.4858 13.8087C16.7472 13.529 16.8129 13.1993 16.7058 12.9083ZM15.7418 13.4263C15.1538 13.7511 14.763 13.7163 14.459 13.912C14.2007 14.0782 14.3536 14.4367 14.1659 14.566C13.9354 14.7252 13.254 14.5548 12.3736 14.8454C11.6476 15.0855 11.1844 15.7757 9.87845 15.7757C8.57252 15.7757 8.12023 15.0869 7.38221 14.8437C6.50363 14.553 5.82079 14.7235 5.5899 14.5643C5.40259 14.435 5.55476 14.0765 5.29681 13.9103C4.99247 13.7145 4.60167 13.7493 4.01407 13.4263C3.6398 13.2197 3.85206 13.0918 3.97682 13.0313C6.10651 12.0002 6.44635 10.4082 6.46146 10.2901C6.47973 10.1471 6.50012 10.0346 6.34267 9.88916C6.1905 9.74858 5.5154 9.33073 5.32808 9.19999C5.01812 8.98351 4.88176 8.76738 4.98227 8.50169C5.05256 8.3179 5.22406 8.24866 5.40399 8.24866C5.46086 8.24884 5.51754 8.2552 5.57303 8.26764C5.91322 8.34144 6.24357 8.51189 6.4344 8.55792C6.45738 8.56382 6.48097 8.56701 6.50468 8.56741C6.6066 8.56741 6.64245 8.5161 6.63542 8.39943C6.61363 8.02726 6.56091 7.3019 6.6196 6.62398C6.70008 5.69128 7.00056 5.22914 7.35761 4.82043C7.52911 4.62398 8.33495 3.77245 9.87599 3.77245C11.417 3.77245 12.225 4.62046 12.3965 4.81621C12.7539 5.22493 13.0547 5.68706 13.1345 6.61977C13.1932 7.29768 13.1426 8.02339 13.1187 8.39521C13.1106 8.51786 13.1475 8.5632 13.2494 8.5632C13.2731 8.56282 13.2967 8.55963 13.3197 8.55371C13.5109 8.50767 13.8412 8.33722 14.1814 8.26342C14.2369 8.25098 14.2936 8.24462 14.3504 8.24445C14.5314 8.24445 14.7019 8.31473 14.7722 8.49748C14.8727 8.76316 14.737 8.97929 14.4267 9.19578C14.2394 9.32651 13.5643 9.74401 13.4121 9.88494C13.2543 10.0304 13.2751 10.1429 13.2933 10.2859C13.3084 10.4058 13.6479 11.9978 15.778 13.0271C15.9038 13.09 16.116 13.2179 15.7418 13.4263Z" fill="black"/>
    </symbol>

    <symbol viewBox="0 0 17 16" id="social-empty">
        <path d="M14.118 0H2.88197L0.5 4.76393V16H16.5V4.76393L14.118 0ZM3.11803 4L4.11803 2H12.882L13.882 4H3.11803ZM2.5 6H14.5V14H2.5V6ZM11.5 8H5.5V9H11.5V8Z" />
    </symbol>
</svg>
