<svg xmlns="../../www.w3.org/2000/svg.html"><symbol id="icon" viewBox="0 0 64 64"><g xmlns="../../www.w3.org/2000/svg.html"><path d="M47,29.63a9.92,9.92,0,0,0,4.016-4.319A7,7,0,0,0,58,32a1,1,0,0,0,1-1V14a7,7,0,0,0-6.8-6.99A11.027,11.027,0,0,0,43,2H41A11.013,11.013,0,0,0,30,13v2.556A3.987,3.987,0,0,0,32,23h.223A9.9,9.9,0,0,0,37,29.63l-.013,4.455-3.221.292A.983.983,0,0,0,33,34H27a1,1,0,0,0-1,1v1.721c-.091.09-.179.182-.265.279H24V36a1,1,0,0,0-1-1H16a1,1,0,0,0-.97.757L14.719,37H13V35a1,1,0,0,0-1-1H6a1,1,0,0,0-1,1V45a1,1,0,0,0,1,1h6a1,1,0,0,0,1-1V43h2.123L16,45.192V57.5c0,.01,0,.018,0,.028h0a4.423,4.423,0,0,0,1.258,3.165A4.356,4.356,0,0,0,20.43,62h.07a4.491,4.491,0,0,0,4.23-3.021l4.5-6.545c.006.041.02.081.027.122.035.208.077.415.128.621.018.073.036.145.056.218s.036.125.055.187c.042.141.09.28.14.419.036.1.071.2.111.3.019.048.036.1.056.144.029.07.064.136.1.2s.063.138.1.206c.042.085.079.172.123.256.032.061.071.12.1.18.056.1.112.2.171.294.04.066.078.133.12.2.069.106.145.207.219.311.031.043.06.088.092.131s.056.089.089.131L31,62.015,32,62l1-.014h0v-.022L32.929,57H51v5h2V56.352c.058-.075.108-.155.163-.232s.125-.172.184-.261c.1-.146.188-.3.276-.446.047-.079.1-.158.14-.239.1-.179.185-.361.269-.545.026-.056.055-.111.079-.167a8.787,8.787,0,0,0,.5-1.555l0-.013c.059-.266.1-.533.137-.8l0-.036a8.727,8.727,0,0,0-.936-5.114l-.044-.083a8.749,8.749,0,0,0-.669-1.056c-.053-.077-.107-.154-.165-.228l-1.438-8.645,2.146.357A4.006,4.006,0,0,1,57,41.24V62h2V41.24a6,6,0,0,0-5.015-5.927l-3.5-.579c-.011,0-.02-.009-.03-.01l-3.287-.54L47,34.15ZM11,44H7V36h4v8Zm2-3V39h1.219l-.189.757a1.011,1.011,0,0,0,.041.615l.252.628ZM25,54.9,24,45v-.413L24.76,43H26v2a1,1,0,0,0,1,1h3.741c-.043.062-.08.127-.122.189s-.086.132-.127.2c-.112.179-.216.359-.314.543-.031.059-.063.117-.093.176-.1.2-.19.4-.274.6-.021.049-.043.1-.062.145-.082.207-.154.417-.219.628L25,55.067ZM38,35.809a2,2,0,0,0,1-1.719V30.523a9.672,9.672,0,0,0,6,0V34.15a2,2,0,0,0,1,1.739V41a4,4,0,0,1-8,0ZM52,21V17a2,2,0,0,1,0,4Zm5-7V29.9A5.008,5.008,0,0,1,53,25V22.858a3.974,3.974,0,0,0,1-7.3V13a10.961,10.961,0,0,0-.7-3.807A4.993,4.993,0,0,1,57,14ZM32,13a9.011,9.011,0,0,1,9-9h2a9.035,9.035,0,0,1,7.751,4.426c.013.029.028.057.043.084A8.986,8.986,0,0,1,52,13v2h-.382L47.9,7.553a1,1,0,0,0-1.52-.334c-.078.063-7.905,6.281-13.6,7.556-.269.061-.528.111-.777.147Zm-2,6a2,2,0,0,1,2-2v4A2,2,0,0,1,30,19Zm4,2V16.523c4.8-1.353,10.415-5.316,12.648-6.991L50,16.236V21a7.956,7.956,0,0,1-4.447,7.166,8.121,8.121,0,0,1-7.108,0A7.955,7.955,0,0,1,34,21ZM28,36h4v8H28V36Zm-2,3v2H24V39ZM23,57.5a2.5,2.5,0,0,1-5,0V45a1.012,1.012,0,0,0-.071-.372l-1.881-4.7L16.781,37H22l0,8.1L23,55ZM51.013,46.161a1.007,1.007,0,0,0,.223.483h0a6.62,6.62,0,0,1,.5.707c.088.137.182.271.26.413a7.676,7.676,0,0,1,.563,1.418c.045.159.094.317.127.479.039.2.061.4.083.6.015.139.029.277.036.416a6.658,6.658,0,0,1-.012.787c-.01.144-.018.288-.038.431a6.565,6.565,0,0,1-.13.668c-.04.168-.079.336-.133.5-.063.2-.142.388-.224.579-.074.174-.149.348-.239.517s-.2.346-.312.514c-.072.111-.149.22-.228.327H32.431a6.67,6.67,0,0,1-.387-.556c-.026-.045-.054-.09-.08-.136a6.518,6.518,0,0,1-.423-.93l-.013-.032c-.021-.061-.038-.123-.058-.185a6.578,6.578,0,0,1-.2-.8c-.006-.03-.013-.06-.018-.091-.014-.08-.029-.16-.041-.241a6.757,6.757,0,0,1-.063-.829c0-.139,0-.279.009-.419a6.851,6.851,0,0,1,.066-.684c.014-.1.02-.192.037-.289A6.88,6.88,0,0,1,31.5,48.9c.031-.09.059-.18.093-.269a6.9,6.9,0,0,1,.416-.884c.043-.078.091-.152.137-.228a6.978,6.978,0,0,1,.616-.874h0v0a1,1,0,0,0,.221-.485L33.013,46A1,1,0,0,0,34,45V40.013l.607-3.685L36,36.237V41a6,6,0,0,0,12,0V36.346l1.421.236Z" fill="currentColor"></path><path d="M39,17.5A1.5,1.5,0,1,0,37.5,19,1.5,1.5,0,0,0,39,17.5Z" fill="currentColor"></path><path d="M46.5,19A1.5,1.5,0,1,0,45,17.5,1.5,1.5,0,0,0,46.5,19Z" fill="currentColor"></path><path d="M39,24h1.861A9.35,9.35,0,0,0,45.5,22.864L44.5,21.136A7.445,7.445,0,0,1,40.861,22H39Z" fill="currentColor"></path></g></symbol></svg>